<svg xmlns="http://www.w3.org/2000/svg" xmlns:xlink="http://www.w3.org/1999/xlink" viewBox="0,0,256,256" width="48px" height="48px" fill-rule="nonzero"><g fill="none" fill-rule="nonzero" stroke="none" stroke-width="1" stroke-linecap="butt" stroke-linejoin="miter" stroke-miterlimit="10" stroke-dasharray="" stroke-dashoffset="0" font-family="none" font-weight="none" font-size="none" text-anchor="none" style="mix-blend-mode: normal"><g transform="scale(5.33333,5.33333)"><path d="M16,28.505v9c0,2.485 6.044,4.5 13.5,4.5c7.456,0 13.5,-2.015 13.5,-4.5v-9z" fill="#144b88"></path><path d="M16,19.505v9c0,2.485 6.044,4.5 13.5,4.5c7.456,0 13.5,-2.015 13.5,-4.5v-9z" fill="#af2031"></path><path d="M16,10.505v9c0,2.485 6.044,4.5 13.5,4.5c7.456,0 13.5,-2.015 13.5,-4.5v-9z" fill="#c94f60"></path><path d="M29.5,6.005c-7.45584,0 -13.5,2.01472 -13.5,4.5c0,2.48528 6.04416,4.5 13.5,4.5c7.45584,0 13.5,-2.01472 13.5,-4.5c0,-2.48528 -6.04416,-4.5 -13.5,-4.5z" fill="#e08095"></path><path d="M25.433,23.796v-6.698c-0.003,-0.92 -0.747,-1.664 -1.667,-1.667h-7.766v4.073c0,2.013 3.966,3.717 9.433,4.292z" fill="#993c49"></path><path d="M16,19.505v9c0,2.013 3.966,3.716 9.433,4.291v-9c-5.467,-0.575 -9.433,-2.279 -9.433,-4.291z" fill="#941b29"></path><path d="M16,28.505v6.931h7.439c1.049,-0.068 1.894,-0.888 1.994,-1.935v-0.705c-5.467,-0.575 -9.433,-2.279 -9.433,-4.291z" fill="#6e101b"></path><path d="M22.319,34h-16.638c-0.928,0 -1.681,-0.753 -1.681,-1.681v-16.638c0,-0.928 0.753,-1.681 1.681,-1.681h16.638c0.928,0 1.681,0.753 1.681,1.681v16.638c0,0.928 -0.753,1.681 -1.681,1.681z" fill="#af2031"></path><path d="M12.923,19.005h2.266l3.64,10h-2.141l-0.802,-2.385h-3.745l-0.788,2.385h-2.126zM15.406,25.078l-1.165,-3.619c-0.096,-0.265 -0.168,-0.538 -0.216,-0.816h-0.042c-0.044,0.285 -0.114,0.565 -0.209,0.837l-1.179,3.598z" fill="#ffffff"></path></g></g></svg>