<svg xmlns="http://www.w3.org/2000/svg" xmlns:xlink="http://www.w3.org/1999/xlink" viewBox="0,0,256,256" width="50px" height="50px" fill-rule="nonzero"><g fill="#3b638a" fill-rule="nonzero" stroke="none" stroke-width="1" stroke-linecap="butt" stroke-linejoin="miter" stroke-miterlimit="10" stroke-dasharray="" stroke-dashoffset="0" font-family="none" font-weight="none" font-size="none" text-anchor="none" style="mix-blend-mode: normal"><g transform="scale(5.12,5.12)"><path d="M28.8125,0l-28,5.3125c-0.5,0.10156 -0.8125,0.60156 -0.8125,1v37.28125c0,0.5 0.3125,0.89844 0.8125,1l28,5.3125h0.1875c0.19922,0 0.49219,-0.11719 0.59375,-0.21875c0.19922,-0.19922 0.40625,-0.48047 0.40625,-0.78125v-47.90625c0,-0.30078 -0.10547,-0.61328 -0.40625,-0.8125c-0.19922,-0.19922 -0.48047,-0.1875 -0.78125,-0.1875zM32,6v7h8v10h4l-5,5l-5,-5h4v-8h-6v12.5l4.5,4.5l-4.5,4.5v7.5h15c1.10156,0 2,-0.89844 2,-2v-34c0,-1.10156 -0.89844,-2 -2,-2zM9.1875,15.6875h6.625c4.69922,0 7.09375,2 7.09375,6c-0.10156,1.80078 -0.69531,3.30078 -2.09375,4.5c-1.39844,1.19922 -3.20703,1.71875 -5.40625,1.71875h-2v6.40625h-4.21875zM13.3125,18.90625v5.78125h1.6875c2.19922,0 3.40625,-0.97656 3.40625,-2.875c0,-1.89844 -1.10547,-2.90625 -3.40625,-2.90625z"></path></g></g></svg>