<svg xmlns="http://www.w3.org/2000/svg" xmlns:xlink="http://www.w3.org/1999/xlink" viewBox="0,0,256,256" width="48px" height="48px" fill-rule="nonzero"><g fill="none" fill-rule="nonzero" stroke="none" stroke-width="1" stroke-linecap="butt" stroke-linejoin="miter" stroke-miterlimit="10" stroke-dasharray="" stroke-dashoffset="0" font-family="none" font-weight="none" font-size="none" text-anchor="none" style="mix-blend-mode: normal"><g transform="scale(5.33333,5.33333)"><path d="M41,10h-16v28h16c0.553,0 1,-0.447 1,-1v-26c0,-0.553 -0.447,-1 -1,-1z" fill="#2e85c1"></path><path d="M24,29h14v2h-14zM24,33h14v2h-14zM30,15c-3.313,0 -6,2.687 -6,6c0,3.313 2.687,6 6,6c3.313,0 6,-2.687 6,-6h-6z" fill="#fbe9e7"></path><path d="M32,13v6h6c0,-3.313 -2.687,-6 -6,-6z" fill="#fbe9e7"></path><path d="M27,42l-21,-4v-28l21,-4z" fill="#ee7f5c"></path><path d="M16.828,17h-4.828v14h3v-4.823h1.552c1.655,0 2.976,-0.436 3.965,-1.304c0.988,-0.869 1.484,-2.007 1.482,-3.412c0.001,-2.974 -1.724,-4.461 -5.171,-4.461zM16.294,23.785h-1.294v-4.364h1.294c1.641,0 2.461,0.72 2.461,2.158c0,1.472 -0.82,2.206 -2.461,2.206z" fill="#ffffff"></path></g></g></svg>